<svg width="23" height="23" viewBox="0 0 23 23" fill="none" xmlns="http://www.w3.org/2000/svg">
<path fill-rule="evenodd" clip-rule="evenodd" d="M11.4001 14.2399C12.9082 14.2399 14.1308 13.0132 14.1308 11.5C14.1308 9.98676 12.9082 8.76004 11.4001 8.76004C9.89199 8.76004 8.66943 9.98676 8.66943 11.5C8.66943 13.0132 9.89199 14.2399 11.4001 14.2399Z" stroke="white" stroke-width="0.8" stroke-linecap="round" stroke-linejoin="round"/>
<path fill-rule="evenodd" clip-rule="evenodd" d="M21.6402 12.87V10.13L18.7006 9.76152C18.5162 8.98023 18.2075 8.23385 17.7865 7.55106L19.6065 5.2036L17.6752 3.26577L15.3357 5.09195C14.6553 4.66951 13.9114 4.35981 13.1328 4.17475L12.7655 1.22519H10.0348L9.66755 4.17475C8.88891 4.35981 8.14506 4.66951 7.46458 5.09195L5.12508 3.26577L3.19382 5.2036L5.01381 7.55106C4.5928 8.23385 4.28415 8.98023 4.09972 9.76152L1.16016 10.13V12.87L4.09972 13.2385C4.28415 14.0198 4.5928 14.7662 5.01381 15.449L3.19382 17.7964L5.12508 19.7343L7.46458 17.9081C8.14506 18.3305 8.88891 18.6402 9.66755 18.8253L10.0348 21.7748H12.7655L13.1328 18.8253C13.9114 18.6402 14.6553 18.3305 15.3357 17.9081L17.6752 19.7343L19.6065 17.7964L17.7865 15.449C18.2075 14.7662 18.5162 14.0198 18.7006 13.2385L21.6402 12.87Z" stroke="white" stroke-width="0.8" stroke-linecap="round" stroke-linejoin="round"/>
</svg>
